<svg id="Layer_1" xmlns="http://www.w3.org/2000/svg" xmlns:xlink="http://www.w3.org/1999/xlink" viewBox="0 0 32 32"><defs><style>.cls-1{fill:url(#linear-gradient);}</style><linearGradient id="linear-gradient" x1="1" y1="16" x2="31" y2="16" gradientUnits="userSpaceOnUse"><stop offset="0" stop-color="#ff6cc7" id="id_117"></stop><stop offset=".17" stop-color="#df7bcc" id="id_118"></stop><stop offset=".55" stop-color="#8ea2da" id="id_119"></stop><stop offset="1" stop-color="#26d6ed" id="id_120"></stop></linearGradient></defs><path class="cls-1" d="M10,24c0,.55-.45,1-1,1h-1c-.55,0-1-.45-1-1s.45-1,1-1h1c.55,0,1,.45,1,1Zm4-1h-1c-.55,0-1,.45-1,1s.45,1,1,1h1c.55,0,1-.45,1-1s-.45-1-1-1Zm5,0h-1c-.55,0-1,.45-1,1s.45,1,1,1h1c.55,0,1-.45,1-1s-.45-1-1-1Zm5,0h-1c-.55,0-1,.45-1,1s.45,1,1,1h1c.55,0,1-.45,1-1s-.45-1-1-1Zm-15-3h-1c-.55,0-1,.45-1,1s.45,1,1,1h1c.55,0,1-.45,1-1s-.45-1-1-1Zm5,0h-1c-.55,0-1,.45-1,1s.45,1,1,1h1c.55,0,1-.45,1-1s-.45-1-1-1Zm5,0h-1c-.55,0-1,.45-1,1s.45,1,1,1h1c.55,0,1-.45,1-1s-.45-1-1-1Zm5,0h-1c-.55,0-1,.45-1,1s.45,1,1,1h1c.55,0,1-.45,1-1s-.45-1-1-1Zm7-15.22V24.22c0,2.08-1.7,3.78-3.78,3.78h-.22v2c0,.55-.45,1-1,1h-5c-.55,0-1-.45-1-1v-2H12v2c0,.55-.45,1-1,1H6c-.55,0-1-.45-1-1v-2h-.22c-2.08,0-3.78-1.7-3.78-3.78V4.78c0-2.08,1.7-3.78,3.78-3.78H27.22c2.08,0,3.78,1.7,3.78,3.78ZM10,28h-3v1h3v-1Zm15,0h-3v1h3v-1ZM29,4.78c0-.98-.8-1.78-1.78-1.78H4.78c-.98,0-1.78,.8-1.78,1.78V24.22c0,.98,.8,1.78,1.78,1.78H27.22c.98,0,1.78-.8,1.78-1.78V4.78Zm-14.41,3.81c-.78,.78-.78,2.05,0,2.83,.39,.39,.9,.58,1.41,.58s1.02-.19,1.41-.58c.78-.78,.78-2.05,0-2.83-.78-.78-2.05-.78-2.83,0Zm6.36-2.12l-.78,.78c1.1,1.67,1.1,3.85,0,5.51l.78,.78c.39,.39,.39,1.02,0,1.41-.2,.2-.45,.29-.71,.29s-.51-.1-.71-.29l-.78-.78c-.81,.54-1.76,.83-2.76,.83s-1.95-.29-2.76-.83l-.78,.78c-.2,.2-.45,.29-.71,.29s-.51-.1-.71-.29c-.39-.39-.39-1.02,0-1.41l.78-.78c-1.1-1.67-1.1-3.85,0-5.51l-.78-.78c-.39-.39-.39-1.02,0-1.41s1.02-.39,1.41,0l.78,.78c.81-.54,1.76-.83,2.76-.83s1.95,.29,2.76,.83l.78-.78c.39-.39,1.02-.39,1.41,0s.39,1.02,0,1.41Zm-2.83,5.66c1.17-1.17,1.17-3.07,0-4.24-.57-.57-1.32-.88-2.12-.88s-1.55,.31-2.12,.88c-1.17,1.17-1.17,3.07,0,4.24s3.11,1.13,4.24,0Zm-9.12,4.88h-1c-.55,0-1,.45-1,1s.45,1,1,1h1c.55,0,1-.45,1-1s-.45-1-1-1Zm5,0h-1c-.55,0-1,.45-1,1s.45,1,1,1h1c.55,0,1-.45,1-1s-.45-1-1-1Zm5,0h-1c-.55,0-1,.45-1,1s.45,1,1,1h1c.55,0,1-.45,1-1s-.45-1-1-1Zm5,0h-1c-.55,0-1,.45-1,1s.45,1,1,1h1c.55,0,1-.45,1-1s-.45-1-1-1Z" id="id_116"></path></svg>