<?xml version="1.0" encoding="UTF-8" standalone="no"?> <svg xmlns="http://www.w3.org/2000/svg" xmlns:xlink="http://www.w3.org/1999/xlink" viewBox="0 0 64 64"><defs><style>.cls-1{fill:url(#linear-gradient);}.cls-2{fill:url(#linear-gradient-2);}</style><linearGradient id="linear-gradient" x1="2.01" y1="32" x2="61.87" y2="32" gradientUnits="userSpaceOnUse"><stop offset="0" stop-color="#17a6d7"/><stop offset="1" stop-color="#9d31fe"/></linearGradient><linearGradient id="linear-gradient-2" x1="34.67" y1="30.59" x2="51.6" y2="30.59" xlink:href="#linear-gradient"/></defs><g id="Layer_62" data-name="Layer 62"><path class="cls-1" d="M36.67,6.67A25.35,25.35,0,0,0,11.42,30H4a1.88,1.88,0,0,0-1,.25,2,2,0,0,0-.46,3.17l9.33,9.33a2,2,0,0,0,2.83,0l9.33-9.33a2,2,0,0,0-.46-3.17,1.9,1.9,0,0,0-.95-.25H15.43C18.85,3.23,57.05,4.9,58,32A21.36,21.36,0,0,1,36.67,53.33a2,2,0,0,0,0,4C70.28,55.94,70.26,8.05,36.67,6.67ZM13.33,38.5,8.83,34h9Z"/><path class="cls-2" d="M36.67,19.66a2,2,0,0,0-2,2V32a2,2,0,0,0,1,1.73l12.93,7.51a2,2,0,0,0,2-3.46L38.67,30.85V21.66A2,2,0,0,0,36.67,19.66Z"/></g></svg>