<?xml version="1.0" encoding="UTF-8"?><svg id="Layer_1" xmlns="http://www.w3.org/2000/svg" xmlns:xlink="http://www.w3.org/1999/xlink" viewBox="0 0 32 32"><defs><style>.cls-1{fill:url(#linear-gradient);}</style><linearGradient id="linear-gradient" x1="1" y1="16" x2="31" y2="16" gradientUnits="userSpaceOnUse"><stop offset="0" stop-color="#ff6cc7"/><stop offset=".17" stop-color="#df7bcc"/><stop offset=".55" stop-color="#8ea2da"/><stop offset="1" stop-color="#26d6ed"/></linearGradient></defs><path class="cls-1" d="M23,15c-4.41,0-8,3.59-8,8s3.59,8,8,8,8-3.59,8-8-3.59-8-8-8Zm0,14c-3.31,0-6-2.69-6-6s2.69-6,6-6,6,2.69,6,6-2.69,6-6,6ZM10,11v-1h-2.4c-.88,0-1.6-.72-1.6-1.6v-1.8c0-.88,.72-1.6,1.6-1.6h.4c0-.55,.45-1,1-1s1,.45,1,1h1c.55,0,1,.45,1,1s-.45,1-1,1h-3v1h2.4c.88,0,1.6,.72,1.6,1.6v1.8c0,.88-.72,1.6-1.6,1.6h-.4c0,.55-.45,1-1,1s-1-.45-1-1h-1c-.55,0-1-.45-1-1s.45-1,1-1h3Zm-1,6c4.41,0,8-3.59,8-8S13.41,1,9,1,1,4.59,1,9s3.59,8,8,8Zm0-14c3.31,0,6,2.69,6,6s-2.69,6-6,6-6-2.69-6-6S5.69,3,9,3Zm8,27c0,.55-.45,1-1,1-4.01,0-7.77-1.56-10.61-4.4C2.56,23.77,1,20,1,16c0-.55,.45-1,1-1s1,.45,1,1c0,3.47,1.35,6.73,3.81,9.19,2.46,2.46,5.72,3.81,9.19,3.81,.55,0,1,.45,1,1ZM14.92,2c0-.55,.44-1,.99-1.01h.09c4,0,7.77,1.56,10.6,4.4,2.83,2.84,4.4,6.6,4.39,10.61,0,.55-.45,1-1,1s-1-.45-1-1c0-3.47-1.35-6.73-3.81-9.19-2.48-2.48-5.76-3.79-9.27-3.81h0c-.55,0-1-.44-1-.99Zm10.96,18.72c-.12-.43-.51-.73-.96-.73h-3.84c-.45,0-.84,.3-.96,.73l-1.13,4c-.09,.3-.02,.63,.16,.88,.19,.25,.48,.4,.8,.4h6.11c.31,0,.61-.15,.8-.4,.19-.25,.25-.57,.16-.88l-1.13-4Zm-4.61,3.27l.57-2h2.33l.57,2h-3.46Z"/></svg>